<?xml version="1.0" standalone="no"?><!DOCTYPE svg PUBLIC "-//W3C//DTD SVG 1.1//EN" "http://www.w3.org/Graphics/SVG/1.1/DTD/svg11.dtd"><svg t="1552551646547" class="icon" style="" viewBox="0 0 1024 1024" version="1.1" xmlns="http://www.w3.org/2000/svg" p-id="1991" xmlns:xlink="http://www.w3.org/1999/xlink" width="200" height="200"><defs><style type="text/css"></style></defs><path d="M106.703109 684.649129c13.135137-8.300898 26.270274-16.601795 40.741187-25.761407-21.149797-8.110072-40.963817-15.711277-61.731963-23.662328 18.22381-14.693543 39.214585-20.672733 60.587012-29.291673-12.117402-5.152281-23.058049-9.859304-34.921018-14.916173 12.785291-9.763891 26.270274-15.997515 40.105103-19.81402 14.375501-3.911917 16.538187-11.672143 16.474579-25.029909-0.540671-104.381402 0.286238-208.794608-0.731497-313.176011-0.254434-24.902693 19.114327-49.042085 48.692238-45.066559 9.096003 1.20856 16.538187 6.551666 24.362022 10.622605 19.686803 10.177346 39.373606 20.4183 58.424325 31.676989 26.715533 15.774886 55.243905 22.485573 86.189396 22.262943 80.528248-0.60428 161.056496-0.540671 241.584744-0.349846 25.506973 0.063608 48.914868-6.456254 71.082399-18.60546 24.075783-13.166941 48.087959-26.429295 72.386372-39.182781 33.553437-17.61953 65.516663 1.494798 65.612075 39.564431 0.254434 103.872535 0.413455 207.745069-0.286238 311.5858-0.095413 14.82076 3.339442 22.803615 18.22381 27.001771 12.499053 3.530267 24.012175 10.399975 39.182781 17.269683-13.644004 5.883778-24.330217 10.495388-37.179116 16.02932 22.072119 8.110072 42.713048 14.757151 61.604746 28.846414-21.340622 8.173681-40.772991 15.615865-62.050005 23.757741 14.534522 9.22322 27.892288 17.683138 43.41274 27.510638-18.22381 4.61161-34.094108 6.996925-50.155231 8.110072-8.364506 0.572476-12.435444 2.671553-12.976116 12.976116-3.943721 75.185141-61.286704 129.125074-136.948908 129.220487-130.906109 0.190825-261.780414-0.222629-392.686524 0.159021-85.616921 0.222629-139.874895-67.647545-137.839426-129.570333 0.286238-9.096003-3.434854-11.831164-11.672143-12.62627-16.220145-1.59021-32.376681-4.00733-48.565022-6.074603-0.318042-1.113147-0.636084-2.289903-0.922322-3.466658z" fill="#0E293D" p-id="1992"></path><path d="M196.136534 747.907693c-6.519862-8.905178-8.01466-19.368761-9.00059-29.864149-1.113147-11.862969-2.735162-24.457434 16.315558-21.658663 3.466658 0.508867 8.459919-1.017735 6.837904-6.106408-1.81284-5.756561-3.498463-12.562661-12.117402-12.40364-12.149206 0.222629-24.330217 0.063608-38.133243-3.721092 15.743082-8.237289 31.486163-16.442774 47.229245-24.680063-25.856819-2.448924-51.109358-4.675218-75.534987-17.714943 22.676398-10.240954 46.052489-15.043389 70.223685-22.103922-13.357766-9.732087-29.164456-11.385906-43.221915-20.227475 15.615865-9.98652 32.567506-12.530857 48.056154-18.541852 5.947386-2.289903 12.371836-2.607945 9.255024-12.40364-3.053204-9.700283-8.777961-7.569401-14.693543-4.834239-13.262354 6.138212-14.757151-0.254434-14.725347-11.735752 0.286238-102.759388 0.127217-205.518775 0.190825-308.309967 0.031804-23.59872 15.647669-33.617045 36.638445-22.803615 25.856819 13.325962 51.172966 27.733267 76.83896 41.44088 23.757741 12.689878 49.073889 18.669069 76.171072 18.573656 74.676274-0.318042 149.447961-2.067273 224.060627 0.572475 50.536882 1.781036 94.617511-12.658074 136.758083-37.847004 13.6122-8.141877 27.542442-15.80669 41.568096-23.185266 19.114327-10.050129 37.719788 0.222629 37.783396 21.785881 0.38165 104.349598 0.063608 208.699196 0.318042 313.080597 0.031804 12.658074-5.247694 12.689878-14.757151 9.22322-5.756561-2.099078-12.880703-7.060534-16.315558 4.039134-3.339442 10.718017 4.866043 11.226884 10.940647 13.357766 15.361431 5.374911 30.850079 10.336367 50.314253 16.792621-17.174271 7.251359-30.691058 12.976116-46.943007 19.845824 24.362021 9.318632 47.992546 12.149206 70.541727 23.185266-23.757741 13.453179-48.437805 15.20241-74.390036 18.096593 15.584061 8.01466 31.168121 16.061124 49.360127 25.41156-13.6122 4.261764-24.902693 2.19449-35.875144 2.79877-5.21589 0.286238-10.749821-1.049539-13.644004 5.247694-1.494798 3.244029-5.279498 5.788365-3.752896 9.891107 1.685623 4.484393 6.20182 4.00733 9.573066 3.530267 15.774886-2.19449 15.965711 7.569401 14.534521 18.478244-1.622014 12.721682-5.59754 24.680063-12.371835 35.652514-22.135727 34.793801-56.770507 49.23291-95.094574 51.395596-55.720968 3.180421-111.728173 1.176756-167.608163 0.667888-2.639749-0.031804-5.21589-0.60428-7.696617-1.558406-4.643414-2.41712-4.802435-5.247694-0.413455-8.046464 4.516197-2.862378 9.700283-4.261764 14.629934-6.138212 71.686679-27.478833 96.65298-114.367922 82.500109-161.501755-8.523527-28.337547-29.895953-45.702643-49.550952-64.626145-11.41771-10.972451-23.439699-21.372426-35.111843-32.154051-27.924092-25.825015-59.378451-25.02991-88.288474-0.22263-17.301488 14.82076-33.012765 31.327142-50.854924 45.511818-47.674504 37.910613-46.338727 101.837066-21.499643 149.161723 16.760816 31.931422 42.267789 55.339317 77.44324 66.788831 9.477653 3.085008 9.350436 3.434854 8.141877 10.972451-6.074603 2.512532-12.499053 2.130882-18.82809 2.130882-49.23291 0.063608-98.46582 0.413455-147.666925-0.127217-35.01643-0.38165-66.502593-10.877038-92.804672-35.111843-6.329037-5.915582-10.20915-13.357766-15.329627-20.004845z" fill="#7A5228" p-id="1993"></path><path d="M529.826257 797.903904c59.696493 0.190825 119.456595 1.749231 179.08948-0.031804 31.0091-0.922322 59.187626-13.739417 82.309284-35.684319 4.198155-3.975526 8.650744-7.633009 13.00792-11.449513-13.294158 35.366276-41.250054 53.462869-75.694009 63.385781-11.672143 3.371246-23.884958 3.530267-36.129577 3.530267-130.810697-0.190825-261.621393 0-392.400286-0.190826-45.320993-0.063608-92.04137-30.436625-103.84073-69.555797 17.269684 16.919837 35.175451 32.662919 58.360717 41.504488 14.025655 5.343107 28.528372 8.587135 43.094698 8.746157 58.774172 0.60428 117.548343 0.095413 176.29071 0 18.60546-7.283163 37.242724-6.901513 55.911793-0.254434z" fill="#5C3D1D" p-id="1994"></path><path d="M529.826257 797.903904c-18.637264 1.526602-37.274529 1.335777-55.911793 0.254434-58.328913-16.633599-94.140448-54.83045-106.512284-113.922664-8.905178-42.681244-0.763301-80.84629 34.221325-110.64683 18.923502-16.124732 36.670249-33.617045 55.307513-50.123428 27.637854-24.457434 61.350312-24.298413 88.924559 0.286238 17.778551 15.838494 34.825605 32.535702 52.922197 47.992546 38.292263 32.694723 46.943007 73.626735 34.443955 120.47433-14.534522 54.544212-49.105693 89.84688-103.395472 105.685374z" fill="#DFBF9E" p-id="1995"></path><path d="M527.695375 474.168898c3.212225-27.383421 6.742492-54.798646 22.83542-78.301954 14.025655-20.513712 30.563841-25.316147 53.749107-15.870298 25.188931 10.272758 51.04575 16.538187 78.365562 18.446439 12.689878 0.890518 25.125322 6.265428 37.528962 10.20915 2.862378 0.890518 9.22322 1.462993 2.480728 8.141876-4.707022 4.675218 4.039134 4.961456 6.456254 5.947387 31.390751 13.039724 53.908128 36.320403 74.994316 62.908718-8.237289-1.017735-15.266019-1.876448-22.294748-2.766966-26.969966 1.240364-52.731372-7.887443-79.446905-9.159611-7.823835-0.38165-15.615865-1.81284-23.503308-1.272168-15.42504 0-30.850079 0.349846-46.275118-0.159021-29.037239-0.699693-57.85185 2.19449-86.634656 5.247693-6.615275 0.763301-12.689878 0.286238-18.255614-3.371245zM221.73892 481.67469c-7.028729 1.622014-14.057459 3.275833-25.061714 5.82017 21.690468-26.429295 42.013355-48.660434 70.764357-62.018201 4.293568-2.003665 17.587726-0.540671 10.081933-13.135136-0.127217-0.222629 2.766966-2.989595 4.548001-3.530267 12.530857-3.7847 24.998105-9.509457 37.783396-10.399975 26.174861-1.81284 51.04575-7.569401 75.24875-17.174271 28.369351-11.258689 46.084294-5.056869 61.03227 21.149796 12.62627 22.167531 15.106998 47.165637 19.591391 71.591266-5.343107 4.198155-11.449514 4.738827-17.905768 3.911918-29.641519-3.816505-59.410256-6.170016-89.338013-5.59754-15.552256 0.445259-31.072709 0.477063-46.624965 0-25.888623 0.858714-51.331987 5.152281-76.807156 9.38224-7.823835 1.335777-15.520452 2.830574-23.312482 0z" fill="#DEBF9E" p-id="1996"></path><path d="M221.73892 481.67469c32.758332-7.155946 65.771097-12.594465 99.388142-13.516787 3.498463 3.816505 3.275833 8.682548 3.752896 13.357766 1.20856 12.435444 8.428114 19.050719 20.513712 19.750412 10.940647 0.636084 19.654999-8.61894 21.149797-21.213405 0.477063-3.975526-1.685623-8.491723 2.226294-11.831165 35.906948-2.830574 71.305028 4.070938 106.957543 5.788366-68.410846 79.542318-159.052831 89.274404-241.648353 20.004845-4.420785-3.752896-8.237289-8.237289-12.340031-12.340032zM680.769016 468.157903c34.189521 1.367581 67.997391 5.152281 100.978352 14.757151-20.577321 17.428705-41.568096 34.284933-66.757027 44.684909-62.495264 25.825015-117.516539 11.226884-166.940274-31.645185-7.473988-6.488058-15.647669-12.594465-20.386496-21.78588 35.111843-2.41712 70.001056-8.332702 105.399137-6.138212 3.371246 3.943721 2.830574 8.905178 3.562071 13.580396 2.067273 12.976116 10.654409 20.450104 22.421964 19.750411 11.19508-0.699693 18.510048-8.332702 19.877629-20.831754 0.508867-4.166351-0.826909-8.555331 1.844644-12.371836z" fill="#123450" p-id="1997"></path><path d="M791.44765 291.453738c0 10.5908 0.508867 21.213405-0.127216 31.772401-0.795105 12.880703-8.714352 16.729012-19.273349 9.127807-18.891698-13.6122-37.497158-27.60605-55.848184-41.949747-10.877038-8.491723-10.113737-15.584061 2.289902-20.990775 18.382831-8.01466 37.115508-15.266019 55.784577-22.644595 10.81343-4.261764 16.474578 0.572476 17.015249 11.322298 0.572476 11.067863 0.127217 22.23114 0.159021 33.362611zM211.752399 290.18157c0-10.5908-0.127217-21.213405 0.031804-31.804206 0.159021-11.131472 5.279498-15.965711 16.315558-11.608535 19.177936 7.569401 38.292263 15.297823 57.279374 23.280679 9.064199 3.816505 11.004255 11.385906 3.625679 17.333292-20.132062 16.315557-40.8366 32.026835-62.145417 46.783986-8.110072 5.629344-14.280088 0.98593-14.502718-9.032395-0.286238-11.640339-0.063608-23.312483-0.063608-34.952821h-0.540672z" fill="#DEBF9E" p-id="1998"></path><path d="M500.598192 573.366214c7.41038 0 14.884368-0.731497 22.199336 0.127217 19.81402 2.353511 31.136317 20.481908 22.199335 38.133242-8.936982 17.61953-15.42504 36.765661-30.945492 51.013946-8.332702 7.633009-2.480728 20.100258-3.466658 30.341212-1.049539 10.81343-1.399385 21.436034 13.99385 22.708202 8.555331 0.699693 3.752896 6.647079 3.275833 10.718017-0.508867 4.579806-1.335777 8.746156-7.696617 6.392646-12.244619-4.516197-24.616455-5.502128-36.924683-0.318042-7.442184 3.148616-7.823835-2.925987-9.191415-6.965121-1.685623-4.866043-1.844644-9.827499 5.311302-10.272759 13.516787-0.890518 13.421375-10.050129 13.071529-20.132062-0.540671-15.297823 1.335777-29.609715-12.689878-42.649439-10.5908-9.827499-15.520452-26.047644-22.00851-39.882474-8.873373-18.923502 1.558406-36.988291 22.231139-39.150976 6.8061-0.699693 13.739417-0.127217 20.609125-0.127217 0.031804 0.031804 0.031804 0.031804 0.031804 0.063608z" fill="#133450" p-id="1999"></path><path d="M680.769016 468.157903c4.516197 18.00118 0.159021 30.054974-13.389571 35.588906-13.103333 5.374911-23.630525 0.98593-31.740597-9.859304-5.979191-7.982856-3.625679-17.047054-2.57614-25.856819 15.902103 0.063608 31.804205 0.095413 47.706308 0.127217zM368.801565 468.221511c5.088673 14.82076 2.003665 27.2244-12.244619 34.825605-11.672143 6.233624-22.517377 3.0214-31.231729-6.488058-7.664813-8.364506-5.692953-18.510048-4.198155-28.432959l47.674503 0.095412z" fill="#D17312" p-id="2000"></path><path d="M503.365158 591.749045c7.633009 2.003665 19.909433-5.152281 25.125322 4.579806 5.184085 9.668478-4.452589 18.669069-9.318632 26.842749-18.319222 30.62745-19.400565 30.40482-36.797465-0.954126-1.272168-2.289903-2.41712-4.675218-3.562071-7.060534-9.477653-19.20974-7.092338-23.312483 13.739416-23.407895h10.81343z" fill="#273A50" p-id="2001"></path></svg>