<?xml version="1.0" standalone="no"?><!DOCTYPE svg PUBLIC "-//W3C//DTD SVG 1.1//EN" "http://www.w3.org/Graphics/SVG/1.1/DTD/svg11.dtd"><svg t="1552552228969" class="icon" style="" viewBox="0 0 1024 1024" version="1.1" xmlns="http://www.w3.org/2000/svg" p-id="3009" xmlns:xlink="http://www.w3.org/1999/xlink" width="16" height="16"><defs><style type="text/css"></style></defs><path d="M229.803811 276.776288c60.702893 0 109.843331 49.140438 109.843331 109.843331 0 60.702893-49.140438 109.843331-109.843331 109.843331-60.702893 0-109.843331-49.140438-109.843331-109.843331C120.683133 325.916725 169.823571 276.776288 229.803811 276.776288L229.803811 276.776288zM229.803811 509.470713c122.12844 0 221.854622 138.026817 229.803811 312.186309L0 821.657022C8.671842 647.49753 108.398024 509.470713 229.803811 509.470713L229.803811 509.470713zM486.345801 456.717008c141.640085 0 256.54199 150.311927 256.54199 336.756528 0 9.394495 0 19.511644-0.722653 28.90614L476.951306 822.379675l0-0.722653c-4.335921-91.05434-32.519407-172.714185-75.878617-231.249118-20.234298-26.738179-42.636556-49.140438-67.929428-65.761468C375.779817 481.287227 428.533522 456.717008 486.345801 456.717008L486.345801 456.717008zM794.196189 509.470713c122.12844 0 221.854622 138.026817 229.803811 312.186309L758.786168 821.657022c0-4.335921 0.722653-8.671842 0.722653-13.730416 0-6.503881 0-11.562456 0-15.175723 0-93.944954-28.90614-179.94072-75.155963-243.534227C717.594919 523.923783 754.450247 509.470713 794.196189 509.470713L794.196189 509.470713zM794.196189 275.330981c60.702893 0 109.843331 49.140438 109.843331 109.843331 0 60.702893-49.140438 109.843331-109.843331 109.843331-60.702893 0-109.843331-49.140438-109.843331-109.843331C684.352858 324.471418 733.493296 275.330981 794.196189 275.330981L794.196189 275.330981zM486.345801 173.436838c72.265349 0 130.800282 58.534933 130.800282 130.800282 0 72.265349-58.534933 130.800282-130.800282 130.800282-72.265349 0-130.800282-58.534933-130.800282-130.800282C355.545519 231.971771 414.080452 173.436838 486.345801 173.436838L486.345801 173.436838z" fill="#FF4400" p-id="3010"></path></svg>