<?xml version="1.0" standalone="no"?><!DOCTYPE svg PUBLIC "-//W3C//DTD SVG 1.1//EN" "http://www.w3.org/Graphics/SVG/1.1/DTD/svg11.dtd"><svg t="1552552072070" class="icon" style="" viewBox="0 0 1177 1024" version="1.1" xmlns="http://www.w3.org/2000/svg" p-id="2463" xmlns:xlink="http://www.w3.org/1999/xlink" width="18.390625" height="16"><defs><style type="text/css"></style></defs><path d="M821.58679 206.202175H89.455355A89.265831 89.265831 0 0 0 0 294.70991v480.064438C0 820.449646 37.904812 852.85826 94.762029 852.85826h113.714434a11.371443 11.371443 0 0 1 9.476203 4.738101 41.316245 41.316245 0 0 1 6.822866 31.840042l-17.815261 81.874393a37.904812 37.904812 0 0 0 9.286679 44.159105 36.767667 36.767667 0 0 0 23.880031 8.528583 53.445784 53.445784 0 0 0 25.2067-8.907631l199.00026-123.380161c29.565753-18.952406 73.535334-40.1791 96.467746-40.179101h260.027007c54.014356 0 90.213451-30.892421 90.213451-75.809623V294.70991a89.265831 89.265831 0 0 0-89.455355-88.507735z m32.598138 568.572173c0 17.246689-20.847646 18.952406-33.356234 18.952406H561.559783c-49.844827 0-115.041103 41.126721-127.170643 49.086731l-165.454502 102.532515 10.044775-46.24387a98.362986 98.362986 0 0 0-18.952406-79.221056 68.228661 68.228661 0 0 0-53.066736-23.880032H94.762029c-1.516192 0-37.904812 0-37.904812-20.658122V294.70991a32.21909 32.21909 0 0 1 32.598138-31.650518h732.131435a32.21909 32.21909 0 0 1 32.598138 31.650518z" fill="#1296db" p-id="2464"></path><path d="M1119.139561 0h-549.619768a64.43818 64.43818 0 0 0-56.857217 63.680083v124.70683h331.098529a81.116297 81.116297 0 0 1 87.749639 83.390586v228.755537L985.5251 534.078795a47.001966 47.001966 0 0 0 26.722892 8.90763 39.989576 39.989576 0 0 0 18.004786-4.359053 41.884817 41.884817 0 0 0 21.03717-25.2067h2.842861a39.041956 39.041956 0 0 1 32.598138-37.904811H1118.19194c54.582929 0 58.941982-39.23148 58.941982-51.36102v-360.095709A64.059132 64.059132 0 0 0 1119.139561 0z m-119.400157 495.415887h-1.516192a14.214304 14.214304 0 0 1 2.274289-3.790481c-0.189524 1.137144-0.568572 2.463813-0.758097 3.790481z m120.347777-77.51534h-32.598138A92.298216 92.298216 0 0 0 1004.477506 478.73777l-16.678117-10.234299v-197.10502a137.78399 137.78399 0 0 0-144.606856-140.247803L568.572173 131.529696V63.869607a15.161925 15.161925 0 0 1 3.790481-7.01239h544.12357a17.057165 17.057165 0 0 1 3.600957 6.443818zM587.524579 624.102722H165.644026a28.428609 28.428609 0 0 0 0 56.857217H587.524579a28.428609 28.428609 0 1 0 0-56.857217zM759.612423 454.857739h-587.524579a28.428609 28.428609 0 0 0 0 56.857217h587.524579a28.428609 28.428609 0 0 0 0-56.857217z" fill="#1296db" p-id="2465"></path></svg>