<?xml version="1.0" standalone="no"?><!DOCTYPE svg PUBLIC "-//W3C//DTD SVG 1.1//EN" "http://www.w3.org/Graphics/SVG/1.1/DTD/svg11.dtd"><svg t="1552552184071" class="icon" style="" viewBox="0 0 1024 1024" version="1.1" xmlns="http://www.w3.org/2000/svg" p-id="2860" xmlns:xlink="http://www.w3.org/1999/xlink" width="16" height="16"><defs><style type="text/css"></style></defs><path d="M981.624 314.037c-25.608-60.548-62.273-114.94-108.976-161.665C825.929 105.673 771.529 69 710.963 43.373 648.269 16.848 581.66 3.398 512.986 3.398c-68.651 0-135.259 13.449-197.975 39.974-60.54 25.615-114.932 62.287-161.667 108.999-46.748 46.749-83.42 101.141-108.998 161.665-26.523 62.717-39.972 129.334-39.972 198 0 68.66 13.449 135.261 39.974 197.951 18.236 43.132 42.313 83.457 71.56 119.856 10.063 12.524 20.669 24.563 31.523 35.783 1.213 1.227 2.419 2.464 3.631 3.705l2.296 2.353c46.703 46.68 101.092 83.343 161.655 108.966 62.731 26.511 129.339 39.952 197.975 39.952 68.657 0 135.266-13.441 197.976-39.952 60.59-25.636 114.989-62.302 161.688-108.978 1.956-2.021 3.926-4.037 5.896-6.053 10.823-11.188 21.428-23.225 31.518-35.777 29.247-36.399 53.323-76.725 71.559-119.855 26.526-62.747 39.976-129.347 39.976-197.951C1021.6 443.423 1008.15 376.806 981.624 314.037zM851.706 814.833c-42.278 47.26-92.802 84.541-150.167 110.806-59.394 27.199-122.832 40.99-188.553 40.99-65.709 0-129.146-13.791-188.547-40.987-57.376-26.271-107.909-63.553-150.195-110.809l-0.714-0.794 0.582-0.9c24.029-37.073 53.741-69.771 88.313-97.185 35.341-28.024 74.879-49.805 117.516-64.736 4.718-1.608 10.303-3.48 15.976-5.173l20.804-6.326-15.6-15.101c-3.825-3.712-7.492-7.648-10.899-11.702-24.491-28.958-37.979-65.775-37.979-103.669L352.243 340.605c0-88.646 72.108-160.765 160.742-160.765 88.646 0 160.764 72.119 160.764 160.765l0 168.642c0 37.877-13.496 74.695-38.001 103.671-3.318 3.943-6.983 7.879-10.894 11.697l-15.604 15.104 20.809 6.326c5.453 1.634 10.827 3.374 15.971 5.173 42.641 14.928 82.181 36.708 117.521 64.736 34.56 27.409 64.263 60.106 88.284 97.184l0.582 0.9L851.706 814.833zM880.771 778.843l-1.159 1.592-1.123-1.615c-15.01-21.6-32.129-42.06-50.883-60.811-40.865-40.867-88.45-72.953-141.434-95.366-1.249-0.534-2.294-0.956-3.286-1.327l-1.633-0.607 0.948-1.466c6.587-10.162 12.207-20.723 16.706-31.389 10.529-24.908 15.868-51.354 15.868-78.606L714.775 340.605c0-27.25-5.339-53.674-15.868-78.538-10.135-23.999-24.682-45.587-43.237-64.165-18.482-18.501-40.057-33.056-64.123-43.261-24.922-10.515-51.354-15.847-78.561-15.847-27.21 0-53.634 5.332-78.539 15.849-24.062 10.184-45.643 24.738-64.142 43.259-18.523 18.502-33.079 40.083-43.261 64.143-10.53 24.94-15.87 51.372-15.87 78.561l0 168.641c0 27.198 5.34 53.646 15.871 78.606 4.664 10.957 10.285 21.519 16.706 31.389l0.947 1.454-1.623 0.617c-1.069 0.406-2.138 0.854-3.208 1.304-52.947 22.396-100.555 54.49-141.5 95.392-18.639 18.62-35.758 39.08-50.881 60.813l-1.125 1.612-1.157-1.591c-56.793-78.047-86.812-170.308-86.812-266.808 0-250.677 203.929-454.617 454.593-454.617 250.665 0 454.596 203.94 454.596 454.617C967.582 608.5 937.563 700.76 880.771 778.843z" p-id="2861" fill="#1296db"></path></svg>