<?xml version="1.0" standalone="no"?><!DOCTYPE svg PUBLIC "-//W3C//DTD SVG 1.1//EN" "http://www.w3.org/Graphics/SVG/1.1/DTD/svg11.dtd"><svg t="1552553036844" class="icon" style="" viewBox="0 0 1024 1024" version="1.1" xmlns="http://www.w3.org/2000/svg" p-id="3897" xmlns:xlink="http://www.w3.org/1999/xlink" width="16" height="16"><defs><style type="text/css"></style></defs><path d="M93.090909 914.618182c-11.636364 0-23.272727-13.963636-23.272727-32.581818V430.545455c0-18.618182 9.309091-32.581818 23.272727-32.581819 11.636364 0 23.272727 13.963636 23.272727 32.581819v451.490909c0 18.618182-11.636364 32.581818-23.272727 32.581818z" fill="#d81e06" p-id="3898"></path><path d="M574.836364 93.090909c6.981818 0 16.290909 2.327273 25.6 4.654546 16.290909 6.981818 48.872727 25.6 53.527272 76.8 13.963636 111.709091-34.909091 218.763636-37.236363 218.763636-4.654545 11.636364-4.654545 23.272727 2.327272 32.581818 6.981818 9.309091 18.618182 16.290909 30.254546 16.290909h267.636364c9.309091 0 34.909091 16.290909 34.90909 34.909091 0 46.545455-55.854545 397.963636-72.145454 430.545455-4.654545 9.309091-41.890909 23.272727-74.472727 23.272727H563.2c-130.327273 0-244.363636-69.818182-246.690909-69.818182H225.745455V442.181818h72.145454c2.327273 0 4.654545 0 9.309091-2.327273H314.181818c23.272727-6.981818 116.363636-39.563636 165.236364-121.018181 18.618182-27.927273 27.927273-69.818182 39.563636-114.036364 9.309091-41.890909 23.272727-93.090909 39.563637-107.054545 0-2.327273 6.981818-4.654545 16.290909-4.654546m0-46.545454c-13.963636 0-32.581818 2.327273-46.545455 13.963636-2.327273 0-2.327273 2.327273-2.327273 2.327273-23.272727 23.272727-37.236364 67.490909-51.2 130.327272-9.309091 39.563636-20.945455 79.127273-34.909091 102.4-39.563636 65.163636-123.345455 95.418182-139.636363 100.072728H225.745455c-25.6 0-46.545455 20.945455-46.545455 46.545454v418.909091c0 25.6 20.945455 46.545455 46.545455 46.545455h79.127272c53.527273 27.927273 148.945455 69.818182 258.327273 69.818181h246.690909c27.927273 0 93.090909-11.636364 114.036364-44.218181 0-2.327273 2.327273-4.654545 2.327272-4.654546 20.945455-44.218182 74.472727-404.945455 74.472728-451.490909 0-48.872727-48.872727-83.781818-83.781818-83.781818H667.927273c16.290909-39.563636 44.218182-130.327273 32.581818-225.745455-9.309091-79.127273-62.836364-107.054545-83.781818-114.036363-13.963636-4.654545-27.927273-6.981818-41.890909-6.981818z" fill="#d81e06" p-id="3899"></path></svg>