<?xml version="1.0" standalone="no"?><!DOCTYPE svg PUBLIC "-//W3C//DTD SVG 1.1//EN" "http://www.w3.org/Graphics/SVG/1.1/DTD/svg11.dtd"><svg t="1552552996425" class="icon" style="" viewBox="0 0 1024 1024" version="1.1" xmlns="http://www.w3.org/2000/svg" p-id="3748" xmlns:xlink="http://www.w3.org/1999/xlink" width="16" height="16"><defs><style type="text/css"></style></defs><path d="M221.19537778 999.40579555H33.13664c-17.59345778 0-31.85777778-14.26318222-31.85777778-31.85664V293.25084445c0-17.59345778 14.26432-31.85777778 31.85777778-31.85777778H221.19537778c17.59232 0 31.85664 14.26432 31.85664 31.85777778v674.2983111c0 17.59345778-14.26432 31.85777778-31.85777778 31.85777778z m-156.20323556-63.71328h124.34773333V325.10862222h-124.34773333v610.58389333z m542.26602667 63.71328H419.19715555c-17.59232 0-31.85664-14.26318222-31.85664-31.85664V498.73464889c0-17.59345778 14.26432-31.85777778 31.85777778-31.85777778h188.05987556c17.59345778 0 31.85777778 14.26432 31.85777778 31.85777778v468.81450666c0 17.59345778-14.26432 31.85777778-31.85777778 31.85777778z m-156.20437334-63.71328h124.34773334V530.59128889h-124.34773334v405.10122666z m535.31420445 63.71328H798.29105778c-17.59345778 0-31.85777778-14.26318222-31.85777778-31.85664V56.72049778c0-17.59232 14.26432-31.85664 31.85777778-31.85664h188.07694222c17.59345778 0 31.85777778 14.26432 31.85777778 31.85777777v910.82865778c0 17.59232-14.26545778 31.85550222-31.85777778 31.85550222z m-156.22030222-63.71328h124.36366222V88.57713778H830.14769778v847.11537777z" fill="#1296db" p-id="3749"></path></svg>